<svg width="246" height="246" viewBox="0 0 246 246" xmlns="http://www.w3.org/2000/svg">
<path fill-rule="evenodd" clip-rule="evenodd" d="M223.923 6.10352e-05H22.077C9.88367 6.10352e-05 0 9.48831 0 21.1849V224.818C0 236.516 9.88367 246 22.077 246H223.923C236.116 246 246 236.516 246 224.818V21.1849C246 9.48831 236.116 6.10352e-05 223.923 6.10352e-05ZM201.935 76.0001H114.935V33.0001H201.935V76.0001ZM83.9354 68.1534C83.9354 69.4309 83.748 70.6734 83.3989 71.858C83.2452 72.3806 83.0605 72.8916 82.8461 73.391C82.044 75.8065 80.6703 80.8118 80.8092 86.3397V166.659C80.6703 172.177 82.044 177.182 82.8461 179.602C83.0605 180.102 83.2452 180.613 83.3989 181.135C83.748 182.32 83.9354 183.559 83.9354 184.834V204.853C83.9354 213.184 76.0234 220 66.352 220H42.5188C32.8475 220 24.9354 213.184 24.9354 204.853V184.834C24.9354 183.559 25.1228 182.32 25.472 181.135C25.6256 180.613 25.809 180.102 26.0247 179.602C26.8255 177.182 28.2005 172.177 28.0617 166.659V86.3397C28.2005 80.8118 26.8255 75.8065 26.0247 73.391C25.809 72.8916 25.6256 72.3806 25.472 71.858C25.1228 70.6734 24.9354 69.4309 24.9354 68.1534V48.1437C24.9354 39.8054 32.8475 33.0001 42.5188 33.0001H66.352C76.0234 33.0001 83.9354 39.8054 83.9354 48.1437V68.1534ZM117.489 103H127.511C128.88 103 130 106.373 130 110.5C130 114.627 128.88 118 127.511 118H117.489C116.12 118 115 114.627 115 110.5C115 106.373 116.12 103 117.489 103ZM153.489 103H163.511C164.88 103 166 106.373 166 110.5C166 114.627 164.88 118 163.511 118H153.489C152.12 118 151 114.627 151 110.5C151 106.373 152.12 103 153.489 103ZM189.49 103H199.511C200.88 103 202 106.373 202 110.5C202 114.627 200.88 118 199.511 118H189.49C188.12 118 187 114.627 187 110.5C187 106.373 188.12 103 189.49 103ZM117.489 133H127.511C128.88 133 130 136.386 130 140.5C130 144.627 128.88 148 127.511 148H117.489C116.12 148 115 144.627 115 140.5C115 136.386 116.12 133 117.489 133ZM153.489 133H163.511C164.88 133 166 136.386 166 140.5C166 144.627 164.88 148 163.511 148H153.489C152.12 148 151 144.627 151 140.5C151 136.386 152.12 133 153.489 133ZM189.49 133H199.511C200.88 133 202 136.386 202 140.5C202 144.627 200.88 148 199.511 148H189.49C188.12 148 187 144.627 187 140.5C187 136.386 188.12 133 189.49 133ZM117.489 163H127.511C128.88 163 130 166.375 130 170.501C130 174.625 128.88 178 127.511 178H117.489C116.12 178 115 174.625 115 170.501C115 166.375 116.12 163 117.489 163ZM153.489 163H163.511C164.88 163 166 166.375 166 170.501C166 174.625 164.88 178 163.511 178H153.489C152.12 178 151 174.625 151 170.501C151 166.375 152.12 163 153.489 163ZM189.49 163H199.511C200.88 163 202 166.375 202 170.501C202 174.625 200.88 178 199.511 178H189.49C188.12 178 187 174.625 187 170.501C187 166.375 188.12 163 189.49 163ZM117.566 193H127.434C128.845 193 130 195.707 130 199.017V201.983C130 205.293 128.845 208 127.434 208H117.566C116.155 208 115 205.293 115 201.983V199.017C115 195.707 116.155 193 117.566 193ZM153.489 193H163.511C164.88 193 166 196.375 166 200.499C166 204.625 164.88 208 163.511 208H153.489C152.12 208 151 204.625 151 200.499C151 196.375 152.12 193 153.489 193ZM189.566 193H199.434C200.845 193 202 195.707 202 199.017V201.983C202 205.293 200.845 208 199.434 208H189.566C188.155 208 187 205.293 187 201.983V199.017C187 195.707 188.155 193 189.566 193Z"/>
</svg>
