<svg width="24" height="25" viewBox="0 0 24 25" xmlns="http://www.w3.org/2000/svg">
  <path fill-rule="evenodd" clip-rule="evenodd" d="M19 3.93486H15.8335C15.5249 3.2285 14.8201 2.73486 14 2.73486H9.99995C9.17982 2.73486 8.47499 3.2285 8.16637 3.93486H4.99995C4.55812 3.93486 4.19995 4.29304 4.19995 4.73486C4.19995 5.17669 4.55812 5.53486 4.99995 5.53486H19C19.4418 5.53486 19.8 5.17669 19.8 4.73486C19.8 4.29304 19.4418 3.93486 19 3.93486ZM4.38327 9.96739C4.24723 8.33494 5.53549 6.93486 7.1736 6.93486H16.8264C18.4645 6.93486 19.7528 8.33494 19.6167 9.96739L18.7834 19.9674C18.6625 21.4186 17.4493 22.5349 15.9931 22.5349H8.00693C6.55069 22.5349 5.33754 21.4186 5.2166 19.9674L4.38327 9.96739ZM7.1736 8.53486C6.47155 8.53486 5.91944 9.13489 5.97774 9.83452L6.81108 19.8345C6.86291 20.4565 7.38283 20.9349 8.00693 20.9349H15.9931C16.6172 20.9349 17.1371 20.4565 17.1889 19.8345L18.0223 9.83452C18.0806 9.13489 17.5284 8.53486 16.8264 8.53486H7.1736ZM8.45562 9.4361C8.89677 9.41159 9.27426 9.74934 9.29877 10.1905L9.79877 19.1905C9.82328 19.6316 9.48552 20.0091 9.04438 20.0336C8.60323 20.0581 8.22574 19.7204 8.20123 19.2792L7.70123 10.2792C7.67672 9.83809 8.01448 9.4606 8.45562 9.4361ZM14.7012 10.1905C14.7257 9.74934 15.1032 9.41159 15.5444 9.4361C15.9855 9.4606 16.3233 9.83809 16.2988 10.2792L15.7988 19.2792C15.7743 19.7204 15.3968 20.0581 14.9556 20.0336C14.5145 20.0091 14.1767 19.6316 14.2012 19.1905L14.7012 10.1905ZM12 9.43486C11.5582 9.43486 11.2 9.79304 11.2 10.2349V19.2349C11.2 19.6767 11.5582 20.0349 12 20.0349C12.4418 20.0349 12.8 19.6767 12.8 19.2349V10.2349C12.8 9.79304 12.4418 9.43486 12 9.43486Z" />
</svg>
